<?xml version="1.0" standalone="no"?><!DOCTYPE svg PUBLIC "-//W3C//DTD SVG 1.1//EN" "http://www.w3.org/Graphics/SVG/1.1/DTD/svg11.dtd"><svg t="1666012160939" class="icon" viewBox="0 0 1024 1024" version="1.1" xmlns="http://www.w3.org/2000/svg" p-id="4655" xmlns:xlink="http://www.w3.org/1999/xlink" width="200" height="200"><path d="M612.949333 917.589333H197.034667a31.957333 31.957333 0 0 1-32.085334-32v-339.754666a32.085333 32.085333 0 0 1 64 0v307.669333h149.76v-252.16a31.957333 31.957333 0 0 1 32.085334-32h201.984a31.914667 31.914667 0 0 1 31.829333 32v252.16h150.016v-307.669333a32 32 0 1 1 64 0v339.754666a31.957333 31.957333 0 0 1-32.085333 32z m-169.898666-64h137.813333v-220.330666h-137.813333z m-356.48-351.317333a32.042667 32.042667 0 0 1 3.413333-45.098667l403.157333-343.168a32.170667 32.170667 0 0 1 41.685334 0l398.933333 343.424a31.872 31.872 0 1 1-41.514667 48.341334l-378.410666-325.162667-382.336 325.418667a31.573333 31.573333 0 0 1-44.928-3.754667z" p-id="4656"></path></svg>