<?xml version="1.0" standalone="no"?><!DOCTYPE svg PUBLIC "-//W3C//DTD SVG 1.1//EN" "http://www.w3.org/Graphics/SVG/1.1/DTD/svg11.dtd"><svg t="1669699022033" class="icon" viewBox="0 0 1024 1024" version="1.1" xmlns="http://www.w3.org/2000/svg" p-id="2441" xmlns:xlink="http://www.w3.org/1999/xlink" width="200" height="200"><path d="M537.3 354.69H253.87c-18.06 0-32.69-14.64-32.69-32.7 0-18.06 14.64-32.69 32.69-32.7H537.3c18.06-0.02 32.71 14.61 32.73 32.66 0.02 18.06-14.6 32.71-32.66 32.73h-0.07zM421 529.14H253.87c-17.5-0.79-31.29-15.21-31.29-32.73 0-17.52 13.78-31.94 31.29-32.73h167.2a32.756 32.756 0 0 1 29.6 15.92 32.782 32.782 0 0 1 0 33.61 32.764 32.764 0 0 1-29.6 15.93H421z m0 174.44H253.87c-17.5-0.79-31.29-15.21-31.29-32.73 0-17.52 13.78-31.94 31.29-32.73h167.2a32.744 32.744 0 0 1 29.6 15.93 32.782 32.782 0 0 1 0 33.61 32.764 32.764 0 0 1-29.6 15.93H421z m322.5-99.35a54.508 54.508 0 0 0-49.43 26.41 54.498 54.498 0 0 0 49.43 82.45c29.01-1.43 51.8-25.38 51.8-54.43s-22.78-53-51.8-54.43z m141.75 324.23c-15.65-0.07-29.08-11.2-32.03-26.58-9.78-52.86-55.89-91.22-109.65-91.22-53.76 0-99.87 38.36-109.65 91.22a32.824 32.824 0 0 1-21 27.07 32.814 32.814 0 0 1-33.66-6.36 32.791 32.791 0 0 1-9.66-32.86c11.14-59.18 51.75-108.56 107.65-130.92-43.93-29.19-63.57-83.71-48.32-134.21 15.25-50.5 61.77-85.05 114.52-85.05 52.75 0 99.27 34.55 114.51 85.05 15.25 50.5-4.39 105.02-48.32 134.21 55.88 22.37 96.44 71.75 107.52 130.92 1.82 9.52-0.7 19.37-6.86 26.85a32.72 32.72 0 0 1-25.05 11.88z m-464.25 0.4H169.34c-36.13-0.04-65.42-29.32-65.46-65.46V180.25c0.04-36.14 29.32-65.42 65.46-65.46h684.48c36.12 0.04 65.39 29.33 65.39 65.46v308.88a32.698 32.698 0 0 1-49.05 28.32 32.698 32.698 0 0 1-16.35-28.32V180.25H169.34V863.4H421a32.766 32.766 0 0 1 29.6 49.54 32.797 32.797 0 0 1-29.6 15.92z m0 0" p-id="2442"></path></svg>