<?xml version="1.0" standalone="no"?><!DOCTYPE svg PUBLIC "-//W3C//DTD SVG 1.1//EN" "http://www.w3.org/Graphics/SVG/1.1/DTD/svg11.dtd"><svg t="1673330622349" class="icon" viewBox="0 0 1024 1024" version="1.1" xmlns="http://www.w3.org/2000/svg" p-id="5102" xmlns:xlink="http://www.w3.org/1999/xlink" width="200" height="200"><path d="M245.213867 2.1504C108.885333 2.1504 2.184533 108.885333 2.184533 245.213867c0 136.362667 106.666667 243.063467 243.029334 243.063466h243.063466v-243.029333c0-136.3968-106.7008-243.0976-243.029333-243.0976zM79.223467 245.213867c0-88.917333 77.073067-165.9904 165.9904-165.9904 88.917333 0 165.9904 77.073067 165.9904 165.9904v165.9904H245.213867c-88.917333 0-165.9904-77.073067-165.9904-165.9904zM778.786133 2.184533c-136.362667 0-243.063467 106.666667-243.063466 243.029334v243.063466h243.029333c136.3968 0 243.0976-106.7008 243.0976-243.029333 0-136.3968-106.7008-243.0976-243.063467-243.0976z m0 409.019734h-165.9904V245.213867c0-88.917333 77.073067-165.9904 165.9904-165.9904 88.917333 0 165.9904 77.073067 165.9904 165.9904 0 88.917333-77.073067 165.9904-165.9904 165.9904zM245.213867 535.722667c-136.362667 0-243.029333 106.7008-243.029334 243.029333 0 136.3968 106.666667 243.0976 243.029334 243.0976s243.063467-106.7008 243.063466-243.063467v-243.063466h-243.029333z m0 409.053866c-88.917333 0-165.9904-77.073067-165.9904-165.9904 0-88.917333 77.073067-165.9904 165.9904-165.9904h165.9904v165.9904c0 88.917333-77.073067 165.9904-165.9904 165.9904z m533.572266-409.053866h-243.063466v243.029333c0 136.3968 106.7008 243.0976 243.029333 243.0976 136.3968 0 243.0976-106.7008 243.0976-243.063467 0-136.362667-106.7008-243.063467-243.063467-243.063466z m0 409.053866c-88.917333 0-165.9904-77.073067-165.9904-165.9904v-165.9904h165.9904c88.917333 0 165.9904 77.073067 165.9904 165.9904 0 88.917333-77.073067 165.9904-165.9904 165.9904z" fill="#38BFD4" p-id="5103"></path></svg>