<?xml version="1.0" standalone="no"?><!DOCTYPE svg PUBLIC "-//W3C//DTD SVG 1.1//EN" "http://www.w3.org/Graphics/SVG/1.1/DTD/svg11.dtd"><svg t="1666012088500" class="icon" viewBox="0 0 1024 1024" version="1.1" xmlns="http://www.w3.org/2000/svg" p-id="3785" xmlns:xlink="http://www.w3.org/1999/xlink" width="200" height="200"><path d="M168.917333 885.290667a362.666667 362.666667 0 0 1 286.421334-354.432 218.922667 218.922667 0 1 1 295.253333-204.8 217.301333 217.301333 0 0 1-64 154.922666 221.866667 221.866667 0 0 1-78.421333 50.090667 361.429333 361.429333 0 0 1 82.688 28.586667 32 32 0 0 1-28.16 57.514666 293.930667 293.930667 0 0 0-131.242667-30.336 298.922667 298.922667 0 0 0-298.666667 298.666667 32 32 0 1 1-64 0zM376.576 325.888a155.093333 155.093333 0 0 0 264.746667 109.312 153.6 153.6 0 0 0 45.354666-109.482667 155.050667 155.050667 0 1 0-310.101333 0zM614.4 805.376a32.042667 32.042667 0 1 1 0-64h208.682667a32.042667 32.042667 0 0 1 0 64z" p-id="3786"></path></svg>