<?xml version="1.0" standalone="no"?><!DOCTYPE svg PUBLIC "-//W3C//DTD SVG 1.1//EN" "http://www.w3.org/Graphics/SVG/1.1/DTD/svg11.dtd"><svg t="1666012500313" class="icon" viewBox="0 0 1024 1024" version="1.1" xmlns="http://www.w3.org/2000/svg" p-id="1123" xmlns:xlink="http://www.w3.org/1999/xlink" width="200" height="200"><path d="M661.461333 170.666667a234.666667 234.666667 0 0 1 133.674667 427.562666l-0.682667 0.128c2.858667-0.384 5.76-0.64 8.704-0.810666L810.666667 597.333333a128 128 0 0 1 15.701333 255.061334l-8.106667 0.768-3.712 0.042666-3.754666 0.128h-554.666667a170.666667 170.666667 0 0 1-20.266667-340.138666 191.957333 191.957333 0 0 1 373.12-40.576l10.154667-1.834667 3.925333-0.469333 4.821334-0.469334 0.853333-0.085333a233.472 233.472 0 0 0 54.058667-149.76c0-55.808-19.498667-107.093333-52.053334-147.370667 10.069333-1.28 20.309333-1.962667 30.72-1.962666z m-234.666666 213.333333a149.333333 149.333333 0 0 0-147.456 125.568l-1.024 8.021333-3.541334 33.962667-33.877333 4.010667a128 128 0 0 0 7.68 254.890666l7.552 0.213334 555.733333-0.042667 5.162667-0.170667a85.333333 85.333333 0 0 0 0.042667-170.24L810.794667 640l-7.68 0.341333-7.509334 0.981334-43.946666 7.765333-5.76-44.288a106.666667 106.666667 0 0 0-103.850667-92.757333l-8.448 0.170666c-2.816 0.170667-5.632 0.426667-8.448 0.853334l-7.253333 1.28-37.333334 7.978666-12.032-36.266666A149.418667 149.418667 0 0 0 426.794667 384z m279.466666-165.418667l1.109334 2.773334c11.861333 31.061333 18.090667 64.426667 18.090666 98.645333a276.48 276.48 0 0 1-46.933333 154.368l0.768 0.170667 2.517333 0.768a149.333333 149.333333 0 0 1 3.626667 1.066666l-6.144-1.834666c4.224 1.152 8.405333 2.474667 12.458667 4.010666l1.749333 0.682667c2.005333 0.725333 3.925333 1.536 5.845333 2.346667l3.712 1.706666c1.664 0.725333 3.285333 1.536 4.864 2.346667l2.986667 1.578667c1.877333 0.981333 3.754667 2.048 5.589333 3.157333l2.645334 1.621333 5.376 3.456 1.792 1.28 0.512 0.384c1.578667 1.109333 3.157333 2.304 4.693333 3.498667l-5.205333-3.84a149.461333 149.461333 0 0 1 12.373333 9.685333l1.962667 1.834667 3.328 3.072 2.901333 2.901333c1.493333 1.493333 2.986667 3.072 4.394667 4.693334l1.408 1.621333c1.536 1.706667 2.986667 3.456 4.437333 5.248l1.237333 1.664c1.365333 1.706667 2.688 3.541333 4.010667 5.376l1.28 1.877333c2.816 4.138667 5.461333 8.490667 7.893333 12.970667l1.066667 2.133333c0.426667 0.64 0.768 1.322667 1.109333 2.005334l1.877334 4.010666a149.333333 149.333333 0 0 1 0.768 1.706667l0.554666 1.152A192.085333 192.085333 0 0 0 713.813333 220.586667l-7.594666-2.005334z" fill="#515151" p-id="1124"></path></svg>