<?xml version="1.0" standalone="no"?><!DOCTYPE svg PUBLIC "-//W3C//DTD SVG 1.1//EN" "http://www.w3.org/Graphics/SVG/1.1/DTD/svg11.dtd"><svg t="1666012909761" class="icon" viewBox="0 0 1024 1024" version="1.1" xmlns="http://www.w3.org/2000/svg" p-id="1240" xmlns:xlink="http://www.w3.org/1999/xlink" width="200" height="200"><path d="M0 0h1024v1024H0z" fill="#FFFFFF" fill-opacity=".01" p-id="1241"></path><path d="M525.653333 518.712889a191.544889 191.544889 0 0 0 82.318223-158.663111C607.971556 255.658667 526.620444 170.666667 426.780444 170.666667 326.883556 170.666667 245.589333 255.658667 245.589333 360.049778c0 66.275556 32.768 124.757333 82.261334 158.72a310.215111 310.215111 0 0 0-122.424889 79.075555A332.515556 332.515556 0 0 0 113.777778 829.155556c0 13.425778 10.296889 24.234667 23.153778 24.234666 12.856889 0 23.210667-10.808889 23.210666-24.234666 0-153.6 119.580444-278.584889 266.524445-278.584889 146.944 0 266.524444 124.984889 266.524444 278.584889 0 13.425778 10.353778 24.234667 23.210667 24.234666 12.856889 0 23.153778-10.808889 23.153778-24.234666a332.515556 332.515556 0 0 0-91.648-231.196445A309.191111 309.191111 0 0 0 525.653333 518.712889zM291.953778 360.163556c0-77.710222 60.472889-140.913778 134.826666-140.913778 74.410667 0 134.883556 63.146667 134.883556 140.913778 0 77.710222-60.472889 140.913778-134.826667 140.913777-74.296889 0-134.826667-63.146667-134.826666-140.913777zM862.890667 608.768c-31.175111-56.092444-75.491556-99.043556-126.862223-123.448889 22.755556-41.528889 34.929778-90.453333 34.588445-140.913778-0.398222-61.383111-19.114667-120.206222-52.679111-165.603555-7.509333-10.126222-20.309333-10.922667-28.558222-1.706667a28.728889 28.728889 0 0 0-1.422223 34.986667c56.149333 75.776 56.547556 190.691556 0.853334 267.264a24.860444 24.860444 0 0 0-3.128889 5.859555 26.510222 26.510222 0 0 0-2.275556 6.428445c-2.958222 13.084444 3.413333 26.737778 14.222222 30.321778 111.104 36.408889 182.897778 164.408889 170.837334 304.071111-1.137778 13.596444 6.940444 25.713778 18.033778 27.192889 0.739556 0.113778 1.479111 0.113778 2.104888 0.113777 10.24 0 19.057778-9.443556 20.138667-22.186666 6.712889-78.108444-9.557333-157.184-45.852444-222.378667z" fill="#999999" p-id="1242"></path></svg>