<?xml version="1.0" standalone="no"?><!DOCTYPE svg PUBLIC "-//W3C//DTD SVG 1.1//EN" "http://www.w3.org/Graphics/SVG/1.1/DTD/svg11.dtd"><svg t="1667196995617" class="icon" viewBox="0 0 1024 1024" version="1.1" xmlns="http://www.w3.org/2000/svg" p-id="3773" xmlns:xlink="http://www.w3.org/1999/xlink" width="200" height="200"><path d="M541.068387 759.741935H163.84c-13.873548 0-25.765161-11.230968-25.765161-25.765161V221.976774c0-13.873548 11.230968-25.765161 25.765161-25.765161h665.930323c13.873548 0 25.765161 11.230968 25.765161 25.765161V535.122581h50.869677V221.976774c0-42.28129-34.353548-76.634839-76.634838-76.634839H163.84c-42.28129 0-76.634839 34.353548-76.634839 76.634839v512c0 42.28129 34.353548 76.634839 76.634839 76.634839h377.228387V759.741935z" p-id="3774"></path><path d="M249.063226 435.365161h409.6c13.873548 0 25.765161-11.230968 25.765161-25.765161 0-13.873548-11.230968-25.765161-25.765161-25.765161h-409.6c-13.873548 0-25.765161 11.230968-25.765161 25.765161 0.660645 13.873548 11.891613 25.765161 25.765161 25.765161" p-id="3775"></path><path d="M249.063226 622.988387h221.976774c13.873548 0 25.765161-11.230968 25.765161-25.765161s-11.230968-25.765161-25.765161-25.765161H249.063226c-13.873548 0-25.765161 11.230968-25.765161 25.765161s11.891613 25.765161 25.765161 25.765161" p-id="3776"></path><path d="M479.628387 119.576774v102.4c0 13.873548 11.230968 25.765161 25.765161 25.765161s25.765161-11.230968 25.765162-25.765161V119.576774c0-13.873548-11.230968-25.765161-25.765162-25.765161s-25.765161 11.230968-25.765161 25.765161" p-id="3777"></path><path d="M650.735484 119.576774v102.4c0 13.873548 11.230968 25.765161 25.765161 25.765161s25.765161-11.230968 25.765161-25.765161V119.576774c0-13.873548-11.230968-25.765161-25.765161-25.765161s-25.765161 11.230968-25.765161 25.765161" p-id="3778"></path><path d="M309.181935 119.576774v102.4c0 13.873548 11.230968 25.765161 25.765162 25.765161 13.873548 0 25.765161-11.230968 25.765161-25.765161V119.576774c0-13.873548-11.230968-25.765161-25.765161-25.765161s-25.765161 11.230968-25.765162 25.765161" p-id="3779"></path><path d="M846.947097 751.153548h-25.765162c0 2.642581-0.660645 5.945806-1.32129 9.909678-1.981935 10.570323 3.303226 21.140645 12.552258 26.425806l33.692903 19.15871-12.552258 22.461935 22.461936 12.552258 12.552258-22.461935-52.851613-30.389677c-9.909677-5.945806-23.122581-3.963871-31.050323 3.963871-5.285161 5.285161-11.891613 9.909677-18.498064 12.552258l-15.194839 23.12258v33.032258-27.086451c0-11.891613-8.588387-22.461935-20.48-25.104516-9.249032-1.981935-17.837419-5.945806-25.765161-12.552258-7.927742-6.606452-19.819355-7.927742-29.068387-2.642581l-20.48 11.891613-12.552258-22.461936-22.461936 12.552258 12.552258 22.461936 40.299355-23.122581c9.909677-5.945806 15.194839-17.837419 11.891613-29.068387-1.32129-5.945806-2.642581-11.230968-2.642581-15.855484s0.660645-9.909677 2.642581-15.855484c3.303226-11.230968-1.981935-23.122581-11.891613-29.068387l-18.498064-10.570322 12.552258-22.461936-22.461936-12.552258-12.552258 22.461936 42.941936 25.104516c9.249032 5.285161 21.140645 4.624516 29.068387-2.642581 7.927742-6.606452 16.516129-10.570323 25.765161-12.552258 11.891613-2.642581 20.48-13.212903 20.48-25.104516v-27.086452 33.032258l15.194839 23.783226c7.267097 3.303226 13.212903 7.267097 18.498064 12.552258 7.927742 8.588387 21.140645 9.909677 31.050323 3.963871l31.050322-17.837419-33.692903 19.15871c-9.249032 5.285161-13.873548 15.855484-12.552258 26.425806 0.660645 3.963871 1.32129 7.267097 1.32129 9.909677h51.530323c0-7.267097-0.660645-13.212903-1.981935-17.837419l-25.104517 3.963871 12.552259 22.461935 55.494193-32.371612c5.945806-3.303226 9.909677-9.249032 11.891613-15.855484 1.981935-6.606452 0.660645-13.873548-2.642581-19.15871l-25.765161-44.263226c-3.303226-5.945806-9.249032-9.909677-15.855484-11.891613-6.606452-1.981935-13.873548-0.660645-19.15871 2.642581l-52.851612 30.389677 12.552258 22.461936 18.498064-17.837419c-9.909677-9.909677-21.80129-18.498065-34.353548-23.783226l-10.570323 23.12258h25.765161V614.4c0-6.606452-2.642581-13.212903-7.267096-17.837419-4.624516-4.624516-11.230968-7.267097-17.83742-7.267097h-50.869677c-6.606452 0-13.212903 2.642581-17.837419 7.267097S720.103226 607.793548 720.103226 614.4v52.851613h25.765161l-5.285161-25.104516c-18.498065 3.963871-35.014194 12.552258-48.227097 23.12258l16.516129 19.819355 12.552258-22.461935-42.941935-25.104516c-12.552258-7.267097-27.747097-2.642581-35.014194 9.249032l-25.765161 44.263226c-7.267097 12.552258-2.642581 27.747097 9.249032 35.014193l40.299355 23.122581 12.552258-22.461936-24.443871-6.606451c-2.642581 8.588387-4.624516 18.498065-4.624516 29.729032 0 11.230968 1.981935 21.140645 4.624516 29.729032l24.443871-6.606451-12.552258-22.461936-40.299355 23.122581c-5.945806 3.303226-9.909677 9.249032-11.891613 15.855484-1.981935 6.606452-0.660645 13.873548 2.642581 19.158709l25.765161 44.263226c7.267097 12.552258 22.461935 16.516129 35.014194 9.249032l42.941935-25.104516-12.552258-22.461935-16.516129 19.819355c13.212903 11.230968 29.729032 19.819355 48.227097 23.12258l5.285161-25.104516H720.103226v52.851613c0 6.606452 2.642581 13.212903 7.267097 17.837419 4.624516 4.624516 11.230968 7.267097 17.837419 7.267097h50.869677c6.606452 0 13.212903-2.642581 17.83742-7.267097 4.624516-4.624516 7.267097-11.230968 7.267096-17.837419v-58.136774h-25.765161l10.570323 23.783226c13.212903-5.945806 25.104516-13.873548 34.353548-23.783226l-18.498064-17.837419-12.552258 22.461935 52.851612 30.389677c5.945806 3.303226 13.212903 3.963871 19.15871 2.642581 6.606452-1.981935 11.891613-5.945806 15.855484-11.891613l25.765161-44.263226c3.303226-5.945806 4.624516-13.212903 2.642581-19.158709-1.981935-6.606452-5.945806-11.891613-11.891613-15.855484l-55.494193-32.371613-12.552259 22.461935 25.104517 3.963871c0.660645-4.624516 1.981935-11.230968 1.981935-17.837419h-25.765161v1.32129z" p-id="3780"></path></svg>