<?xml version="1.0" standalone="no"?><!DOCTYPE svg PUBLIC "-//W3C//DTD SVG 1.1//EN" "http://www.w3.org/Graphics/SVG/1.1/DTD/svg11.dtd"><svg t="1667197103972" class="icon" viewBox="0 0 1024 1024" version="1.1" xmlns="http://www.w3.org/2000/svg" p-id="5180" xmlns:xlink="http://www.w3.org/1999/xlink" width="200" height="200"><path d="M714.512 1024H247.456A227.344 227.344 0 0 1 20.336 796.928V227.072A227.344 227.344 0 0 1 247.456 0h529.008a227.36 227.36 0 0 1 227.2 227.072v575.552a57.04 57.04 0 1 1-114.08 0V227.072a113.152 113.152 0 0 0-113.12-112.992H247.456a113.152 113.152 0 0 0-113.04 112.992v569.856a113.152 113.152 0 0 0 113.04 112.992h467.056a57.04 57.04 0 1 1 0 114.08z" fill="#999999" p-id="5181"></path><path d="M715.296 766.144a18.048 18.048 0 0 1-18.688-17.952 154.048 154.048 0 0 0-66.896-125.792 17.248 17.248 0 0 1-2.976-25.296 18.672 18.672 0 0 1 26.512-3.2 189.152 189.152 0 0 1 81.088 154.304 18.064 18.064 0 0 1-19.04 17.936z" fill="#12ADA9" p-id="5182"></path><path d="M715.296 778a29.856 29.856 0 0 1-30.544-29.808 141.52 141.52 0 0 0-61.984-116.192l-0.752-0.576a31.264 31.264 0 0 1-11.344-21.44 28.16 28.16 0 0 1 6.8-20.32 29.648 29.648 0 0 1 19.712-11.408 30.736 30.736 0 0 1 23.312 6.32 201.824 201.824 0 0 1 85.664 163.664 29.072 29.072 0 0 1-8.464 20.8 31.264 31.264 0 0 1-22.4 8.96z m-78.192-164.912a166.736 166.736 0 0 1 71.36 135.104 6.208 6.208 0 0 0 6.816 6.08 7.792 7.792 0 0 0 5.6-2.032 5.408 5.408 0 0 0 1.6-3.984 178.416 178.416 0 0 0-76.096-144.704 7.84 7.84 0 0 0-5.936-1.856 6.144 6.144 0 0 0-4.176 2.384l-0.624 0.784a4.384 4.384 0 0 0-1.328 3.36 7.872 7.872 0 0 0 2.784 4.864z" fill="#12ADA9" p-id="5183"></path><path d="M512.368 284.72a139.552 139.552 0 1 1 0 279.12A168.864 168.864 0 0 0 343.536 732.384a18.592 18.592 0 0 1-18.688 19.072 18.912 18.912 0 0 1-19.072-19.072 207.52 207.52 0 0 1 130.048-191.728 139.296 139.296 0 0 1 76.592-256z m0 241.024a101.632 101.632 0 1 0-101.632-101.632 102.24 102.24 0 0 0 101.632 101.632z" fill="#999999" p-id="5184"></path><path d="M324.8 774.224a41.904 41.904 0 0 1-41.856-41.856 231.072 231.072 0 0 1 111.632-196.672 165.712 165.712 0 0 1-44.8-111.6 162.528 162.528 0 1 1 162.592 162.512 146.096 146.096 0 0 0-146.096 145.76 41.216 41.216 0 0 1-41.472 41.856z m187.568-428.96a78.848 78.848 0 1 0 78.848 78.848 79.904 79.904 0 0 0-78.848-78.848z" fill="#999999" p-id="5185"></path></svg>