<?xml version="1.0" standalone="no"?><!DOCTYPE svg PUBLIC "-//W3C//DTD SVG 1.1//EN" "http://www.w3.org/Graphics/SVG/1.1/DTD/svg11.dtd"><svg t="1666012112128" class="icon" viewBox="0 0 1024 1024" version="1.1" xmlns="http://www.w3.org/2000/svg" p-id="4075" xmlns:xlink="http://www.w3.org/1999/xlink" width="200" height="200"><path d="M520.405333 712.405333a200.533333 200.533333 0 0 1 200.533334-200.533333 203.264 203.264 0 0 1 200.533333 200.533333 200.533333 200.533333 0 0 1-401.066667 0z m64-4.266666a136.533333 136.533333 0 0 0 273.066667 0 136.533333 136.533333 0 1 0-273.066667 0z m-384 192a90.965333 90.965333 0 0 1-89.6-93.866667v-601.6a90.88 90.88 0 0 1 89.6-93.866667h465.066667a90.965333 90.965333 0 0 1 89.6 93.866667v179.2a31.402667 31.402667 0 0 1-34.133333 34.133333 33.621333 33.621333 0 0 1-34.133334-34.133333v-179.2a28.586667 28.586667 0 0 0-25.6-29.866667h-465.066666a28.373333 28.373333 0 0 0-25.6 29.866667v601.6a28.330667 28.330667 0 0 0 25.6 29.866667h251.733333c17.066667 0 38.4 8.533333 38.4 29.866666a33.493333 33.493333 0 0 1-34.133333 34.133334z m546.133334-106.666667l-34.133334-34.133333-34.133333 34.133333a32.768 32.768 0 0 1-21.333333 8.533333 32.384 32.384 0 0 1-21.333334-8.533333 33.28 33.28 0 0 1 0-46.933333l34.133334-34.133334-34.133334-34.133333a33.194667 33.194667 0 0 1 46.933334-46.933333l34.133333 34.133333 34.133333-34.133333a33.536 33.536 0 0 1 46.933334 0 28.842667 28.842667 0 0 1-8.533334 46.933333l-34.133333 34.133333 34.133333 34.133334a33.749333 33.749333 0 0 1 0 46.933333 33.109333 33.109333 0 0 1-21.333333 8.533333 31.829333 31.829333 0 0 1-21.333333-8.533333z m-507.733334-89.6a31.488 31.488 0 0 1-34.133333-34.133333 33.578667 33.578667 0 0 1 34.133333-34.133334h183.466667a31.402667 31.402667 0 0 1 34.133333 34.133334 33.706667 33.706667 0 0 1-34.133333 34.133333z m-4.266666-175.146667a31.232 31.232 0 0 1-34.133334-34.133333 33.578667 33.578667 0 0 1 34.133334-34.133333h260.266666a34.133333 34.133333 0 1 1 0 68.266666z m4.266666-170.666666a31.274667 31.274667 0 0 1-34.133333-34.133334 33.536 33.536 0 0 1 34.133333-34.133333h375.466667a31.402667 31.402667 0 0 1 34.133333 34.133333 33.578667 33.578667 0 0 1-34.133333 34.133334z" p-id="4076"></path></svg>