<?xml version="1.0" standalone="no"?><!DOCTYPE svg PUBLIC "-//W3C//DTD SVG 1.1//EN" "http://www.w3.org/Graphics/SVG/1.1/DTD/svg11.dtd"><svg t="1666012105578" class="icon" viewBox="0 0 1024 1024" version="1.1" xmlns="http://www.w3.org/2000/svg" p-id="3930" xmlns:xlink="http://www.w3.org/1999/xlink" width="200" height="200"><path d="M861.738667 895.957333l-145.066667-145.066666a4.266667 4.266667 0 0 1-4.266667-4.266667 343.04 343.04 0 0 1-238.933333 93.866667 362.666667 362.666667 0 1 1 362.666667-362.666667 358.4 358.4 0 0 1-81.066667 226.133333l4.266667 4.266667 145.066666 145.066667a28.16 28.16 0 0 1 0 42.666666 31.658667 31.658667 0 0 1-21.333333 8.533334 32 32 0 0 1-21.333333-8.533334z m-691.2-418.133333a298.666667 298.666667 0 1 0 298.666666-298.666667 296.96 296.96 0 0 0-298.666666 298.666667z m102.4 0a198.613333 198.613333 0 0 1 196.266666-196.266667c21.333333 0 38.4 8.533333 38.4 29.866667a33.493333 33.493333 0 0 1-34.133333 34.133333 132.949333 132.949333 0 0 0-132.266667 132.266667 31.402667 31.402667 0 0 1-34.133333 34.133333 33.706667 33.706667 0 0 1-34.133333-34.133333z" p-id="3931"></path></svg>