<?xml version="1.0" standalone="no"?><!DOCTYPE svg PUBLIC "-//W3C//DTD SVG 1.1//EN" "http://www.w3.org/Graphics/SVG/1.1/DTD/svg11.dtd"><svg t="1666012312636" class="icon" viewBox="0 0 1024 1024" version="1.1" xmlns="http://www.w3.org/2000/svg" p-id="937" xmlns:xlink="http://www.w3.org/1999/xlink" width="200" height="200"><path d="M496.5888 351.3344c-74.6496 0-135.3728 60.7232-135.3728 135.3728s60.7232 135.3728 135.3728 135.3728 135.3728-60.7232 135.3728-135.3728-60.672-135.3728-135.3728-135.3728z" fill="#9191E2" p-id="938"></path><path d="M512 81.92c-237.5168 0-430.08 192.5632-430.08 430.08s192.5632 430.08 430.08 430.08 430.08-192.5632 430.08-430.08-192.5632-430.08-430.08-430.08z m-15.4112 598.8352c-107.008 0-194.048-87.04-194.048-194.048s87.04-194.048 194.048-194.048 194.048 87.04 194.048 194.048-87.04 194.048-194.048 194.048z m236.0832 57.856c-5.7344 5.7344-13.2096 8.6016-20.736 8.6016s-15.0016-2.8672-20.736-8.6016l-48.6912-48.6912a29.29664 29.29664 0 0 1 0-41.472 29.29664 29.29664 0 0 1 41.472 0l48.6912 48.6912c11.4688 11.4688 11.4688 30.0544 0 41.472z" fill="#9191E2" p-id="939"></path></svg>