<?xml version="1.0" standalone="no"?><!DOCTYPE svg PUBLIC "-//W3C//DTD SVG 1.1//EN" "http://www.w3.org/Graphics/SVG/1.1/DTD/svg11.dtd"><svg t="1667646324065" class="icon" viewBox="0 0 1024 1024" version="1.1" xmlns="http://www.w3.org/2000/svg" p-id="13909" xmlns:xlink="http://www.w3.org/1999/xlink" width="200" height="200"><path d="M798.55 683.22m-161.37 0a161.37 161.37 0 1 0 322.74 0 161.37 161.37 0 1 0-322.74 0Z" fill="#279ACC" p-id="13910"></path><path d="M904.75 712.67H692.36a29.45 29.45 0 1 1 0-58.89h212.39a29.45 29.45 0 1 1 0 58.89z" fill="#303030" p-id="13911"></path><path d="M798.55 818.87a29.44 29.44 0 0 1-29.44-29.45V577a29.45 29.45 0 0 1 58.89 0v212.4a29.44 29.44 0 0 1-29.45 29.47z" fill="#303030" p-id="13912"></path><path d="M72.69 470.57l301.86-311.46c16.61-16.61 27.45-7.67 44.06 8.94L712.4 467.73 699 505.28H91.89z" fill="#279ACC" p-id="13913"></path><path d="M661.57 866.59H573a62.2 62.2 0 0 1-62.13-62.14v-150.3h-97.19v153.42a59.09 59.09 0 0 1-59 59h-95.6a61 61 0 0 1-60.94-61V513.54a66.23 66.23 0 0 1 19.53-47.13L425 259.11a60 60 0 0 1 84.73 0L708.27 457.7a29.44 29.44 0 0 1-41.63 41.64L468 300.75a1 1 0 0 0-1.46 0L259.3 508a7.76 7.76 0 0 0-2.28 5.5v292.1a2.05 2.05 0 0 0 2.05 2.06h95.6l0.12-159.66a52.8 52.8 0 0 1 52.74-52.75h109.1a53.21 53.21 0 0 1 53.15 53.16v156a3.25 3.25 0 0 0 3.22 3.29h88.55a29.45 29.45 0 1 1 0 58.89z" fill="#303030" p-id="13914"></path><path d="M842.18 507.7a29.33 29.33 0 0 1-20.82-8.63L475.12 152.84a11 11 0 0 0-15.6 0l-345 345a29.44 29.44 0 0 1-41.63-41.64l345-345a69.92 69.92 0 0 1 98.9 0L863 457.44a29.45 29.45 0 0 1-20.82 50.26z" fill="#303030" p-id="13915"></path></svg>