<?xml version="1.0" standalone="no"?><!DOCTYPE svg PUBLIC "-//W3C//DTD SVG 1.1//EN" "http://www.w3.org/Graphics/SVG/1.1/DTD/svg11.dtd"><svg t="1666012128318" class="icon" viewBox="0 0 1024 1024" version="1.1" xmlns="http://www.w3.org/2000/svg" p-id="4220" xmlns:xlink="http://www.w3.org/1999/xlink" width="200" height="200"><path d="M750.805333 944.896a77.568 77.568 0 0 1-33.365333-8.533333l-205.098667-102.4-206.848 102.4a69.205333 69.205333 0 0 1-73.941333-5.376 72.533333 72.533333 0 0 1-27.946667-70.528l42.666667-220.373334-161.92-150.912a76.8 76.8 0 0 1-20.010667-73.002666 17.536 17.536 0 0 1 0.64-2.133334 69.845333 69.845333 0 0 1 57.770667-48.213333l225.365333-41.002667 100.949334-205.056a72.149333 72.149333 0 0 1 63.402666-40.490666 70.272 70.272 0 0 1 63.530667 40.704l100.864 204.8 225.664 39.466666a67.754667 67.754667 0 0 1 56.192 49.152 71.765333 71.765333 0 0 1-17.066667 73.301334l-162.816 153.344 40.96 220.714666a71.168 71.168 0 0 1-28.074666 70.229334 63.274667 63.274667 0 0 1-40.917334 13.909333z m-238.378666-179.2a31.701333 31.701333 0 0 1 14.293333 3.370667l219.434667 109.738666a20.053333 20.053333 0 0 0 5.589333 1.962667c4.010667-3.370667 5.333333-6.101333 4.864-8.533333l-44.16-237.952a31.829333 31.829333 0 0 1 9.514667-29.098667l174.677333-164.522667a7.765333 7.765333 0 0 0 1.194667-7.381333c0-0.512-0.810667-2.517333-0.938667-3.029333a3.968 3.968 0 0 0-3.328-2.858667l-2.218667-0.384-241.664-42.24a31.957333 31.957333 0 0 1-23.210666-17.365333l-108.757334-220.970667c-2.048-3.669333-7.594667-6.144-11.52 1.578667l-107.946666 219.306666a31.957333 31.957333 0 0 1-22.997334 17.322667l-243.2 44.16a6.656 6.656 0 0 0-6.485333 4.650667 13.397333 13.397333 0 0 0 3.114667 9.685333l173.824 161.92a32.085333 32.085333 0 0 1 9.6 29.482667l-45.909334 238.037333a9.216 9.216 0 0 0 3.584 6.954667 11.690667 11.690667 0 0 0 5.376 0.213333l222.805334-110.634667a32.042667 32.042667 0 0 1 14.464-3.242666z" p-id="4221"></path></svg>