<?xml version="1.0" standalone="no"?><!DOCTYPE svg PUBLIC "-//W3C//DTD SVG 1.1//EN" "http://www.w3.org/Graphics/SVG/1.1/DTD/svg11.dtd"><svg t="1666788472321" class="icon" viewBox="0 0 1024 1024" version="1.1" xmlns="http://www.w3.org/2000/svg" p-id="3305" xmlns:xlink="http://www.w3.org/1999/xlink" width="200" height="200"><path d="M652.8 510.3c37.9 0 73.6 14.8 100.4 41.6 26.8 26.8 41.6 62.5 41.6 100.4s-14.8 73.6-41.6 100.4c-26.8 26.8-62.5 41.6-100.4 41.6s-73.6-14.8-100.4-41.6c-26.8-26.8-41.6-62.5-41.6-100.4s14.8-73.6 41.6-100.4c26.8-26.8 62.4-41.6 100.4-41.6m0-38c-99.4 0-180 80.6-180 180s80.6 180 180 180 180-80.6 180-180-80.6-180-180-180zM730.8 348h-516c-12.2 0-22-9.8-22-22s9.8-22 22-22h516c12.2 0 22 9.8 22 22s-9.9 22-22 22zM410.8 548h-196c-12.2 0-22-9.8-22-22s9.8-22 22-22h196c12.2 0 22 9.8 22 22s-9.9 22-22 22zM410.8 748h-196c-12.2 0-22-9.8-22-22s9.8-22 22-22h196c12.2 0 22 9.8 22 22s-9.9 22-22 22z" p-id="3306"></path><path d="M894.1 925.5L755.5 786.9c-8.6-8.6-8.6-22.5 0-31.1 8.6-8.6 22.5-8.6 31.1 0l138.6 138.6c8.6 8.6 8.6 22.5 0 31.1-8.6 8.6-22.5 8.6-31.1 0z" p-id="3307"></path><path d="M857.3 64H166.7C110 64 64 110 64 166.7v690.7C64 914 110 960 166.7 960H638c12.2 0 22-9.8 22-22s-9.8-22-22-22H166.7c-32.4 0-58.7-26.3-58.7-58.7V166.7c0-32.4 26.3-58.7 58.7-58.7h690.7c32.4 0 58.7 26.3 58.7 58.7V638c0 12.2 9.8 22 22 22s22-9.8 22-22V166.7C960 110 914 64 857.3 64z" p-id="3308"></path></svg>