<?xml version="1.0" standalone="no"?><!DOCTYPE svg PUBLIC "-//W3C//DTD SVG 1.1//EN" "http://www.w3.org/Graphics/SVG/1.1/DTD/svg11.dtd"><svg t="1666788355264" class="icon" viewBox="0 0 1024 1024" version="1.1" xmlns="http://www.w3.org/2000/svg" p-id="2313" xmlns:xlink="http://www.w3.org/1999/xlink" width="200" height="200"><path d="M906.7 885.3L760.2 738.9c63.2-71 101.7-164.6 101.7-267 0-51.7-9.7-102.1-28.8-149.8-7.3-18.1-27.8-26.8-45.9-19.6-18.1 7.3-26.8 27.8-19.6 45.9 15.8 39.2 23.8 80.8 23.8 123.5 0 182.8-148.7 331.4-331.4 331.4-182.8 0-331.4-148.7-331.4-331.4 0-182.8 148.7-331.4 331.4-331.4 72.4 0 141.1 22.9 198.8 66.2 15.6 11.7 37.7 8.5 49.4-7 11.7-15.6 8.5-37.7-7-49.4C631.1 97.7 547.7 70 460 70 238.3 70 58 250.3 58 472s180.3 402 402 402c88.9 0 171-29 237.7-78 0.3 0.4 0.7 0.8 1 1.1l148.1 148.1c8.3 8.3 19.1 12.4 29.9 12.4 10.8 0 21.7-4.1 29.9-12.4 16.6-16.5 16.6-43.3 0.1-59.9z" fill="#4D4D4D" p-id="2314"></path><path d="M742 256.3m-35.3 0a35.3 35.3 0 1 0 70.6 0 35.3 35.3 0 1 0-70.6 0Z" fill="#4D4D4D" p-id="2315"></path><path d="M615.1 680c15.6 0 28.2-12.6 28.2-28.2v-23c0-72.4-58.9-131.4-131.4-131.4h-85.6c-72.4 0-131.4 58.9-131.4 131.4v23c0 15.6 12.6 28.2 28.2 28.2s28.2-12.6 28.2-28.2v-23c0-41.3 33.6-74.9 74.9-74.9h85.6c41.3 0 74.9 33.6 74.9 74.9v23c0.1 15.5 12.8 28.2 28.4 28.2zM444.5 328.9c24.8-14.3 56.5-5.8 70.8 19 4.6 8 7 17.1 7 26.3-0.1 15.6 12.4 28.3 28 28.5 15.7 0.1 28.3-12.4 28.5-28 0.2-19.3-4.8-38.3-14.5-55-29.9-51.7-96.2-69.5-147.9-39.6-25 14.5-43 37.8-50.5 65.8-7.5 27.9-3.6 57.1 10.8 82.2 20 34.7 56.5 54.1 94 54.1 18.4 0 37-4.7 54-14.5l3-1.8c13.2-8.2 17.3-25.6 9-38.9-8.2-13.2-25.6-17.3-38.9-9-0.5 0.3-0.9 0.6-1.4 0.8-24.8 14.3-56.5 5.8-70.8-19-6.9-12-8.8-26-5.2-39.3 3.6-13.5 12.1-24.7 24.1-31.6z" fill="#4D4D4D" p-id="2316"></path></svg>