<?xml version="1.0" standalone="no"?><!DOCTYPE svg PUBLIC "-//W3C//DTD SVG 1.1//EN" "http://www.w3.org/Graphics/SVG/1.1/DTD/svg11.dtd"><svg t="1673330523768" class="icon" viewBox="0 0 1024 1024" version="1.1" xmlns="http://www.w3.org/2000/svg" p-id="4159" xmlns:xlink="http://www.w3.org/1999/xlink" width="200" height="200"><path d="M941.65035 175.952048V91.044955C941.65035 46.033966 905.846154 10.22977 860.835165 10.22977H230.681319C139.636364 10.22977 65.982018 83.884116 65.982018 174.929071v774.393606c0 40.919081 33.758242 74.677323 74.677323 74.677323h726.313686c40.919081 0 74.677323-33.758242 74.677323-74.677323V256.767233H248.071928c-45.010989 0-83.884116-34.781219-85.93007-78.769231-2.045954-48.07992 35.804196-86.953047 82.861139-86.953047h568.775225v85.93007H941.65035zM720.687313 736.543457c0 26.597403-21.482517 49.102897-49.102897 49.102897H330.933067c-26.597403 0-49.102897-21.482517-49.102897-49.102897 0-26.597403 21.482517-49.102897 49.102897-49.102898h341.674326c26.597403 0 48.07992 22.505495 48.07992 49.102898zM221.474525 447.040959h559.568432c26.597403 0 49.102897 21.482517 49.102897 49.102897s-21.482517 49.102897-49.102897 49.102897H221.474525c-26.597403 0-49.102897-21.482517-49.102897-49.102897s22.505495-49.102897 49.102897-49.102897z" fill="#38ADFF" p-id="4160"></path></svg>