<?xml version="1.0" standalone="no"?><!DOCTYPE svg PUBLIC "-//W3C//DTD SVG 1.1//EN" "http://www.w3.org/Graphics/SVG/1.1/DTD/svg11.dtd"><svg t="1668665260863" class="icon" viewBox="0 0 1442 1024" version="1.1" xmlns="http://www.w3.org/2000/svg" p-id="2614" xmlns:xlink="http://www.w3.org/1999/xlink" width="281.640625" height="200"><path d="M1078.406833 729.15649H397.80044a5.376203 5.376203 0 0 0-5.341368 5.120746c-0.290292 5.132358-0.754759 10.276327-1.346953 15.408685a218.810299 218.810299 0 0 1-13.109575 51.300356 24.698021 24.698021 0 0 0 22.944659 33.755123h677.45963c22.874989 0 41.651058-18.183874 41.651058-40.640843v-24.280001c0-22.480192-18.578671-40.640843-41.651058-40.640843z m-594.517476-281.211411c1.579187-2.101712 9.660909-14.874549 11.240096-16.976261l113.213777-154.435203c13.934003-18.973468 10.949804-44.577199-6.641874-57.094579l-7.826266-5.666495c-17.591679-12.714778-42.963177-7.431468-56.89718 11.530388l-102.821333 140.385084a27.705443 27.705443 0 0 1-18.392884 10.973027L267.854247 398.049735a95.610486 95.610486 0 0 1-12.772836 0.383185l-19.426323-0.325126H173.637162c-5.805835 0.092893-9.742191 0-15.025501 0-13.295362 0-16.349231-0.150952-34.010579 0H98.16131c-54.168438 0-98.153442 43.61343-98.153442 97.189673v242.846455c0 43.090905 28.471813 79.133527 67.637975 91.848305a21.110015 21.110015 0 0 1 2.554567 1.010215c5.538766 2.612626 24.674798 4.319541 27.9609 4.319541h137.307991c54.168438 0 98.153442-43.601819 98.153442-97.178061v-218.763853a27.705443 27.705443 0 0 1 21.35386-26.962296l106.269999-25.034759q0.986992-0.232233 1.962372-0.534137c5.120746-1.590799 12.215476-3.483501 20.680383-18.903798m-317.056634-108.441381c65.118242 0 117.707493-52.252512 117.707493-116.534714S231.695509 106.376211 166.832723 106.376211c-65.118242 0-117.719105 52.252512-117.719104 116.546326s52.600863 116.581161 117.719104 116.581161m175.336209-119.275068a171.353406 171.353406 0 0 1-47.770408 118.58998 5.341368 5.341368 0 0 0 5.016241 8.871315h0.197398a442.160761 442.160761 0 0 1 81.943552-9.927977 23.478796 23.478796 0 0 0 18.369661-9.533181l101.091194-136.367446c29.923272-40.280881 84.660682-51.230686 122.410219-24.384506l16.999484 12.02969c37.749537 26.788121 44.194014 81.281686 14.282354 121.423227L524.077345 477.299379a151.265218 151.265218 0 0 1-10.218269 12.459322c-67.243178 73.559926-119.530525 5.42265-124.244863 87.296531v0.325126l-0.371573 85.589616a5.341368 5.341368 0 0 0 5.341368 5.364591h42.336147c20.482985 0.150952 40.280881 0 61.205109 0h236.738717c-19.159255 0-34.602775-15.09517-34.602775-33.824793v-23.664582c0-18.578671 15.44352-33.673841 34.602775-33.673842H868.014994c18.973468 0 34.614387 15.09517 34.614387 33.673842v23.65297c0 18.578671-15.455132 33.824793-34.614387 33.824793h112.435795c42.963177 0 77.798185-33.429996 77.798186-74.883656V74.885363c0-41.45366-34.835008-74.883656-77.798186-74.883656H202.225092a78.053642 78.053642 0 0 0-68.172112 39.131326 5.341368 5.341368 0 0 0 5.399427 7.895935 174.082148 174.082148 0 0 1 23.86198-1.660469c98.69919 0.197398 178.912603 78.216205 178.912603 174.802072" p-id="2615"></path></svg>