<?xml version="1.0" standalone="no"?><!DOCTYPE svg PUBLIC "-//W3C//DTD SVG 1.1//EN" "http://www.w3.org/Graphics/SVG/1.1/DTD/svg11.dtd"><svg t="1666012890954" class="icon" viewBox="0 0 1024 1024" version="1.1" xmlns="http://www.w3.org/2000/svg" p-id="1098" xmlns:xlink="http://www.w3.org/1999/xlink" width="200" height="200"><path d="M0 0h1024v1024H0z" fill="#FFFFFF" fill-opacity=".01" p-id="1099"></path><path d="M256 700.472889a31.971556 31.971556 0 0 0-32.028444-32.028445H117.361778a31.971556 31.971556 0 1 0 0 64h106.609778c17.692444 0 32.028444-14.336 32.028444-32.028444zM117.304889 414.151111h106.723555a31.971556 31.971556 0 1 0 0-64H117.304889a31.971556 31.971556 0 1 0 0 64z" fill="#02BC67" p-id="1100"></path><path d="M817.777778 142.222222H206.222222c-35.384889 0-64 28.615111-64 64V256a31.971556 31.971556 0 1 0 64 0v-49.777778h611.555556v668.444445H206.222222v-48.014223h-0.113778l0.113778-1.763555a31.971556 31.971556 0 1 0-64 0c0 0.568889 0 1.137778 0.113778 1.763555H142.222222v48.014223c0 35.384889 28.615111 64 64 64h611.555556c35.384889 0 64-28.615111 64-64V206.222222c0-35.384889-28.615111-64-64-64z" fill="#02BC67" p-id="1101"></path><path d="M461.312 581.233778A145.806222 145.806222 0 0 1 394.24 458.638222 145.976889 145.976889 0 0 1 540.103111 312.888889a145.976889 145.976889 0 0 1 145.749333 145.806222c0 51.313778-26.737778 96.597333-66.958222 122.538667a202.467556 202.467556 0 0 1 120.32 148.821333 32.028444 32.028444 0 1 1-62.862222 11.946667 138.808889 138.808889 0 0 0-272.497778 0 32.028444 32.028444 0 0 1-62.862222-11.946667 202.410667 202.410667 0 0 1 120.32-148.821333z m-343.950222-7.907556a31.971556 31.971556 0 1 1 0-64h106.609778a31.971556 31.971556 0 1 1 0 64H117.361778z m422.684444-196.437333a81.92 81.92 0 0 0-81.749333 81.806222A81.92 81.92 0 0 0 540.103111 540.444444a81.92 81.92 0 0 0 81.749333-81.806222 81.92 81.92 0 0 0-81.749333-81.749333z" fill="#02BC67" p-id="1102"></path></svg>