<?xml version="1.0" standalone="no"?><!DOCTYPE svg PUBLIC "-//W3C//DTD SVG 1.1//EN" "http://www.w3.org/Graphics/SVG/1.1/DTD/svg11.dtd"><svg t="1666012136204" class="icon" viewBox="0 0 1024 1024" version="1.1" xmlns="http://www.w3.org/2000/svg" p-id="4365" xmlns:xlink="http://www.w3.org/1999/xlink" width="200" height="200"><path d="M615.978667 902.912l-50.090667-74.752a25.6 25.6 0 0 1-1.493333-26.410667 25.856 25.856 0 0 1 22.656-13.568h243.2a25.6 25.6 0 0 1 0 51.2h-195.328l23.424 34.816a25.6 25.6 0 0 1-6.912 35.498667 25.6 25.6 0 0 1-35.498667-6.912z m-448.256-27.178667a357.717333 357.717333 0 0 1 280.234666-348.501333 215.424 215.424 0 1 1 154.410667 0 343.594667 343.594667 0 0 1 79.146667 27.562667 32 32 0 1 1-28.074667 57.514666 288.981333 288.981333 0 0 0-128.597333-29.568 293.504 293.504 0 0 0-293.248 292.992 32 32 0 1 1-64 0zM372.992 325.632a151.893333 151.893333 0 0 0 259.242667 107.562667 149.333333 149.333333 0 0 0 44.416-107.562667 151.850667 151.850667 0 0 0-303.658667 0z m214.101333 436.650667a25.6 25.6 0 1 1 0-51.2h195.413334l-23.424-34.986667a25.6 25.6 0 1 1 42.410666-28.416l50.346667 74.752a25.6 25.6 0 0 1-21.333333 39.765333z" p-id="4366"></path></svg>