<?xml version="1.0" standalone="no"?><!DOCTYPE svg PUBLIC "-//W3C//DTD SVG 1.1//EN" "http://www.w3.org/Graphics/SVG/1.1/DTD/svg11.dtd"><svg t="1666011846348" class="icon" viewBox="0 0 1024 1024" version="1.1" xmlns="http://www.w3.org/2000/svg" p-id="947" xmlns:xlink="http://www.w3.org/1999/xlink" width="200" height="200"><path d="M512 601.66c-72.72 0-137.02-48.91-156.36-118.94-4.41-15.97 4.96-32.49 20.93-36.9 15.97-4.41 32.49 4.96 36.9 20.93 12.18 44.11 52.7 74.91 98.53 74.91s86.34-30.8 98.53-74.91c4.41-15.97 20.93-25.34 36.9-20.93 15.97 4.41 25.34 20.93 20.93 36.9-19.34 70.03-83.64 118.94-156.36 118.94zM863.29 925.9a29.984 29.984 0 0 1-12.57 2.78c-11.34 0-22.18-6.45-27.25-17.42-17.08-36.95-55.96-70.9-109.48-95.6-58.01-26.77-127.86-40.92-201.99-40.92s-143.97 14.15-201.99 40.92c-53.52 24.7-92.4 58.65-109.48 95.6-6.95 15.04-24.78 21.59-39.82 14.64-15.04-6.95-21.6-24.78-14.64-39.82 11.88-25.71 30.35-49.73 54.88-71.4 23.26-20.54 51.49-38.54 83.92-53.51 25.76-11.89 53.47-21.57 82.6-28.97-33.87-16.33-64.55-38.13-91.38-64.95-30.76-30.76-54.91-66.59-71.79-106.49-17.48-41.32-26.34-85.2-26.34-130.42s8.86-89.1 26.34-130.42c16.88-39.9 41.03-75.73 71.79-106.49s66.59-54.91 106.48-71.79c41.32-17.48 85.2-26.34 130.42-26.34s89.1 8.86 130.42 26.34c39.9 16.88 75.73 41.03 106.49 71.79 30.76 30.76 54.91 66.59 71.79 106.49 17.48 41.32 26.34 85.2 26.34 130.42s-8.86 89.1-26.34 130.42c-16.88 39.9-41.03 75.73-71.79 106.49-27.01 27.01-57.92 48.92-92.07 65.28 28.66 7.36 55.92 16.93 81.29 28.64 32.43 14.97 60.67 32.97 83.92 53.51 24.53 21.67 43 45.69 54.88 71.4 6.95 15.04 0.4 32.87-14.64 39.82zM513 705.39c151.65 0 275.03-123.38 275.03-275.03S664.65 155.33 513 155.33 237.97 278.7 237.97 430.35 361.35 705.38 513 705.38z" p-id="948"></path></svg>