<?xml version="1.0" standalone="no"?><!DOCTYPE svg PUBLIC "-//W3C//DTD SVG 1.1//EN" "http://www.w3.org/Graphics/SVG/1.1/DTD/svg11.dtd"><svg t="1670395382979" class="icon" viewBox="0 0 1024 1024" version="1.1" xmlns="http://www.w3.org/2000/svg" p-id="2541" xmlns:xlink="http://www.w3.org/1999/xlink" width="200" height="200"><path d="M512 1020.69c-68.66 0-135.28-13.46-198.02-39.99-60.58-25.62-114.98-62.3-161.68-109-46.71-46.71-83.38-101.1-109-161.68C16.76 647.28 3.31 580.66 3.31 512S16.76 376.72 43.3 313.98C68.92 253.4 105.6 199 152.3 152.3c46.7-46.71 101.1-83.38 161.68-109C376.72 16.76 443.34 3.31 512 3.31S647.28 16.76 710.02 43.3C770.6 68.92 825 105.6 871.7 152.3c46.71 46.7 83.38 101.1 109 161.68 26.54 62.74 39.99 129.36 39.99 198.02s-13.46 135.28-39.99 198.02C955.08 770.6 918.4 825 871.7 871.7s-101.1 83.38-161.68 109c-62.74 26.54-129.36 39.99-198.02 39.99z m0-941.38C273.41 79.31 79.31 273.41 79.31 512S273.41 944.69 512 944.69 944.69 750.59 944.69 512 750.59 79.31 512 79.31z" p-id="2542"></path><path d="M431 767.6c-25.94 0-50.29-10.06-68.56-28.33L177.79 554.62c-14.84-14.84-14.84-38.9 0-53.74s38.9-14.84 53.74 0l184.65 184.65c5.28 5.28 11.55 6.07 14.81 6.07 3.27 0 9.54-0.79 14.81-6.06l346.65-346.65c14.84-14.84 38.9-14.84 53.74 0 14.84 14.84 14.84 38.9 0 53.74L499.56 739.28c-18.27 18.26-42.61 28.32-68.56 28.32z" p-id="2543"></path></svg>