<?xml version="1.0" standalone="no"?><!DOCTYPE svg PUBLIC "-//W3C//DTD SVG 1.1//EN" "http://www.w3.org/Graphics/SVG/1.1/DTD/svg11.dtd"><svg t="1667197391565" class="icon" viewBox="0 0 1024 1024" version="1.1" xmlns="http://www.w3.org/2000/svg" p-id="6687" xmlns:xlink="http://www.w3.org/1999/xlink" width="200" height="200"><path d="M832 736l0-32-64 0 0-64-32 0 0 32-64 0 0-32-32 0 0 64-64 0 0 32 32 0 0 64-32 0 0 32 64 0 0 64 32 0 0-32 64 0 0 32 32 0 0-64 64 0 0-32-32 0 0-64L832 736zM768 800l-32 0 0 32-64 0 0-32-32 0 0-64 32 0 0-32 64 0 0 32 32 0L768 800z" p-id="6688"></path><path d="M725.6 375.808c0-117.792-95.808-213.6-213.6-213.6s-213.6 95.84-213.6 213.6c0 72.16 36.064 135.936 90.976 174.624C271.68 599.488 192 716.256 192 845.824c0 8.832 7.168 16 16 16s16-7.168 16-16c0-125.28 82.784-237.376 201.856-274.72 26.368 11.68 55.488 18.304 86.144 18.304C629.792 589.376 725.6 493.568 725.6 375.808zM330.4 375.808c0-100.128 81.472-181.6 181.6-181.6s181.6 81.472 181.6 181.6c0 100.128-81.472 181.6-181.6 181.6S330.4 475.936 330.4 375.808z" p-id="6689"></path></svg>