<?xml version="1.0" standalone="no"?><!DOCTYPE svg PUBLIC "-//W3C//DTD SVG 1.1//EN" "http://www.w3.org/Graphics/SVG/1.1/DTD/svg11.dtd"><svg t="1667197398792" class="icon" viewBox="0 0 1024 1024" version="1.1" xmlns="http://www.w3.org/2000/svg" p-id="6828" xmlns:xlink="http://www.w3.org/1999/xlink" width="200" height="200"><path d="M497.846 84.54c-112.41 0-203.62 90.73-203.62 202.73 0 112 91.21 202.74 203.62 202.74 112.42 0 203.62-90.74 203.62-202.74 0-112-91.2-202.73-203.62-202.73z m0 61.71c78.42 0 141.92 63.17 141.92 141.03s-63.5 141.04-141.92 141.04c-78.4 0-141.92-63.19-141.92-141.04s63.51-141.03 141.92-141.03zM518.596 542.9v61.7h-41.49c-190.08 0-343.86 134.09-351.25 300.39l-0.28 12.53h-61.7c0-203.15 177.71-367.34 398.45-374.39l14.78-0.24h41.49zM929.146 640.91h-345.53c-17.04 0-30.85 13.81-30.85 30.85v229.18c0 17.04 13.81 30.85 30.85 30.85h345.53c17.04 0 30.85-13.81 30.85-30.85V671.76c0-17.04-13.81-30.85-30.85-30.85z m-30.87 61.64v167.52h-283.83V702.55h283.83z" p-id="6829"></path><path d="M756.386 526.32c45.94 0 83.75 34.93 88.03 79.65l0.41 8.49v57.3c0 17.04-13.81 30.85-30.85 30.85-15.15 0-27.74-10.91-30.35-25.31l-0.5-5.55v-57.3c0-14.57-11.93-26.44-26.74-26.44-13.16 0-24.05 9.38-26.31 21.7l-0.43 4.74v57.3c0 17.04-13.81 30.85-30.85 30.85-15.15 0-27.74-10.91-30.35-25.31l-0.5-5.55v-57.3c0-48.69 39.63-88.12 88.44-88.12z" p-id="6830"></path></svg>