<?xml version="1.0" standalone="no"?><!DOCTYPE svg PUBLIC "-//W3C//DTD SVG 1.1//EN" "http://www.w3.org/Graphics/SVG/1.1/DTD/svg11.dtd"><svg t="1666012002022" class="icon" viewBox="0 0 1024 1024" version="1.1" xmlns="http://www.w3.org/2000/svg" p-id="1092" xmlns:xlink="http://www.w3.org/1999/xlink" width="200" height="200"><path d="M512 943.3c-4.72 0-9.43-1.11-13.75-3.33-2.85-1.47-70.71-36.59-143.6-85.61-43.31-29.13-79.37-57.14-107.16-83.26-37.71-35.45-60.36-67.27-69.24-97.28-31.36-106.02-31.34-169.86-31.26-407.41v-37.7c0-14.45 10.3-26.85 24.51-29.49C337.77 168.24 496.38 85.03 497.97 84.2a30.002 30.002 0 0 1 28.05 0c1.58 0.83 160.52 84.11 326.47 115.02 14.21 2.65 24.51 15.04 24.51 29.49v37.71c0.08 237.54 0.1 301.38-31.26 407.4-8.88 30.01-31.53 61.84-69.24 97.29-27.79 26.12-63.84 54.14-107.16 83.26-72.89 49.02-140.75 84.14-143.6 85.61a30.02 30.02 0 0 1-13.75 3.33z m-13.75-56.67zM207 253.28v13.14c-0.07 230.69-0.09 292.69 28.8 390.37 6.25 21.13 34.35 68.43 152.34 147.78 51.15 34.4 100.64 62.14 123.86 74.74 23.32-12.65 73.11-40.57 124.33-75.04 117.62-79.18 145.65-126.38 151.88-147.47 28.89-97.68 28.87-159.68 28.8-390.36v-13.15c-138.29-29.65-263.75-88.42-305-108.92-41.25 20.5-166.71 79.26-305 108.92z m293.17 401.87L739.2 416.12c11.72-11.72 11.72-30.71 0-42.43s-30.71-11.71-42.43 0L478.95 591.51 353.1 465.66c-11.72-11.72-30.71-11.72-42.43 0s-11.72 30.71 0 42.43l147.06 147.06c5.86 5.86 13.54 8.79 21.21 8.79s15.36-2.93 21.21-8.79z" p-id="1093"></path></svg>