<?xml version="1.0" standalone="no"?><!DOCTYPE svg PUBLIC "-//W3C//DTD SVG 1.1//EN" "http://www.w3.org/Graphics/SVG/1.1/DTD/svg11.dtd"><svg t="1666148871269" class="icon" viewBox="0 0 1024 1024" version="1.1" xmlns="http://www.w3.org/2000/svg" p-id="2210" xmlns:xlink="http://www.w3.org/1999/xlink" width="200" height="200"><path d="M557.24437 73.782276h193.531374c100.527353 0 182.774401 82.247048 182.774402 182.775425v43.629596c0 100.528377-82.247048 182.775425-182.774402 182.775424H557.24437c-100.5294 0-182.775425-82.247048-182.775425-182.775424v-43.629596c0-100.528377 82.246025-182.775425 182.775425-182.775425z m-71.798089 110.517872v57.002134h309.759283v-57.002134H485.446281z m0 110.780861v57.002134h170.477355v-57.002134H485.446281z" fill="#515151" p-id="2211"></path><path d="M536.268681 429.795931h172.088036c12.427006 0 31.944486 14.412216 22.594556 22.586369l-9.146292 7.995075c-9.34993 8.17313-11.82121 16.397426-22.585346 22.585346l-154.027741 88.519903c-19.082576 10.968797-31.509581 3.605101-31.509582-17.454499V452.3823c0.001023-12.418819 10.168573-22.586369 22.586369-22.586369z" fill="#515151" p-id="2212"></path><path d="M229.339857 6.024192h183.619651c-32.668985 40.654851-56.209074 88.962993-67.544214 141.789023h-133.725387c-35.915929 0-65.303178 29.387249-65.303178 65.303178v497.751513c0 35.915929 29.387249 65.303178 65.303178 65.303178H698.753008c35.915929 0 65.302155-29.388272 65.302154-65.303178V550.686014a340.216909 340.216909 0 0 0 55.936875-19.620834v348.019602c0 76.384539-62.507511 138.892049-138.891026 138.89205H229.339857c-76.391702 0-138.891026-62.507511-138.891026-138.89205v-734.169564c0-76.391702 62.499324-138.891026 138.891026-138.891026z m225.875972 816.409449c-32.421345 0-58.705936 26.28459-58.705936 58.705936 0 32.429532 26.28459 58.714122 58.705936 58.714122s58.714122-26.28459 58.714123-58.714122c0-32.422369-26.292777-58.705936-58.714123-58.705936z" fill="#515151" p-id="2213"></path></svg>